<svg width="16" height="16" viewBox="0 0 16 16" fill="none" xmlns="http://www.w3.org/2000/svg">
<path d="M7.99746 15.5834C6.95924 15.5834 5.97921 15.3845 5.0574 14.9867C4.13558 14.5889 3.33056 14.0459 2.64233 13.3577C1.95412 12.6695 1.41113 11.8645 1.01335 10.9427C0.615576 10.0208 0.416687 9.04082 0.416687 8.0026C0.416687 6.95171 0.61584 5.9673 1.01415 5.04935C1.41244 4.13142 1.95459 3.32915 2.6406 2.64254C3.32663 1.95594 4.13112 1.41333 5.05406 1.01471C5.97702 0.616068 6.95687 0.416748 7.9936 0.416748C8.16106 0.416748 8.29426 0.466256 8.39321 0.565269C8.49217 0.664283 8.54165 0.792013 8.54165 0.948457C8.54165 1.1049 8.49217 1.23595 8.39321 1.3416C8.29426 1.44724 8.16319 1.50006 8 1.50006C6.19896 1.50006 4.66537 2.12853 3.39923 3.38548C2.13308 4.64242 1.5 6.17714 1.5 7.98964C1.5 9.80215 2.13308 11.3403 3.39923 12.6042C4.66537 13.8681 6.19896 14.5001 8 14.5001C9.81944 14.5001 11.3576 13.867 12.6146 12.6008C13.8715 11.3347 14.5 9.8011 14.5 8.00006C14.5 7.8366 14.5529 7.70546 14.6588 7.60664C14.7646 7.50783 14.8957 7.45842 15.0522 7.45842C15.2086 7.45842 15.3362 7.50789 15.4351 7.60685C15.5339 7.7058 15.5833 7.839 15.5833 8.00646C15.5833 9.04319 15.384 10.023 14.9854 10.946C14.5867 11.8689 14.0441 12.6734 13.3575 13.3595C12.6709 14.0455 11.8686 14.5876 10.9507 14.9859C10.0328 15.3842 9.04835 15.5834 7.99746 15.5834Z" fill="white"/>
</svg>
